<svg width="2529" height="831" xmlns="http://www.w3.org/2000/svg" xmlns:xlink="http://www.w3.org/1999/xlink" xml:space="preserve" overflow="hidden"><defs><clipPath id="clip0"><rect x="86" y="1482" width="2529" height="831"/></clipPath></defs><g clip-path="url(#clip0)" transform="translate(-86 -1482)"><path d="M703.077 1493.58C725.758 1487.46 748.956 1481.42 772.618 1482.04 780.523 1482.43 790.185 1483.75 794.499 1491.36 799.872 1502.56 797.883 1515.55 796.23 1527.39 790.288 1560.82 777.836 1592.67 764.455 1623.71 751.048 1654.09 735.703 1683.67 717.879 1711.7 704.213 1732.66 688.817 1753.38 667.324 1766.88 630.745 1790.83 589.077 1807.38 545.91 1814.4 533.252 1842.53 523.72 1871.93 512.612 1900.68 475.903 1995.82 438.936 2090.82 402.331 2185.99 391.198 2215.2 377.971 2243.57 363.272 2271.13 356.607 2284.17 348.883 2297.69 335.864 2305.33 308.223 2321.59 267.743 2311.19 253.586 2281.77 237.854 2247.44 225.506 2211.64 212.952 2176.05 189.65 2108.09 169.346 2039.1 149.971 1969.93 134.988 1913.15 115.329 1857.73 99.7779 1801.13 93.9398 1778.6 87.9208 1755.91 86.2156 1732.61 84.9501 1718.13 89.2383 1702.95 99.4423 1692.37 116.027 1673.99 144.779 1668.83 167.124 1679 181.668 1685.76 191.536 1699.91 196.341 1714.85 203.858 1743.78 208.715 1773.41 217.963 1801.88 249.608 1905.3 275.286 2010.53 310.47 2112.84 354.644 2003.2 396.932 1892.78 436.844 1781.52 439.918 1770.99 447.074 1761.64 448.52 1750.8 443.845 1711.65 452.55 1671.72 469.548 1636.44 480.76 1613.8 496.027 1592.56 516.693 1577.67 539.685 1560.84 565.181 1547.76 590.911 1535.63 627.18 1518.9 664.586 1504.42 703.077 1493.58Z" fill="#00B050" fill-rule="evenodd"/><path d="M2366.35 1507.79C2373.77 1500.88 2387.96 1502.35 2396.99 1506.53 2399.03 1532.65 2397.24 1559.09 2397.84 1585.34 2397.87 1639.5 2397.79 1693.65 2397.87 1747.81 2397.48 1754.13 2398.93 1760.89 2396.73 1766.92 2389.54 1770.79 2380.41 1770.04 2372.79 1768.06 2368.33 1766.97 2369.99 1761.27 2369.47 1758.05 2369.36 1752.45 2369.49 1746.86 2369.62 1741.29 2356.99 1753.56 2342.96 1765.79 2325.43 1770.12 2303.59 1775.05 2278.36 1770.51 2262.51 1753.95 2244.38 1735.33 2239.71 1708.17 2239.01 1683.26 2238.75 1656.36 2242.88 1627.25 2260.8 1605.97 2276.8 1586.68 2304.37 1579.72 2328.39 1585.13 2343.17 1588.69 2355 1598.72 2365.91 1608.76 2366.04 1575.1 2365.32 1541.42 2366.35 1507.79M2289.33 1621.32C2275.58 1635.65 2272.1 1656.52 2271.79 1675.6 2271.98 1693.53 2273.4 1712.61 2283.36 1728.11 2290.05 1738.86 2302.4 1745.9 2315.26 1745.05 2332.22 1745.23 2346 1733.68 2356.94 1722 2360.7 1717.46 2366.72 1713.18 2366.02 1706.55 2365.94 1685.3 2365.86 1664.02 2365.99 1642.77 2356.76 1632.25 2347.16 1621.47 2334.58 1614.89 2320.16 1607.44 2300.63 1609.17 2289.33 1621.32Z" fill-rule="evenodd"/><path d="M2166.34 1516.38C2174.78 1514.6 2185.47 1513.53 2192.47 1519.74 2197.2 1526.91 2196.48 1536.64 2194.34 1544.64 2192 1552.22 2182.76 1552.94 2176.15 1552.99 2169.28 1553.1 2159.91 1551.73 2158.21 1543.65 2156.31 1534.52 2155.22 1519.82 2166.34 1516.38Z" fill-rule="evenodd"/><path d="M1526.64 1521.6C1537.46 1520.41 1548.42 1521.42 1559.32 1521.13 1581.79 1521.26 1605.2 1519.58 1626.54 1528.11 1645.35 1535.46 1660.82 1551.47 1666.02 1571.19 1672.19 1594.91 1668.96 1621.73 1654.67 1642.01 1643.75 1657.56 1626.18 1667.47 1607.86 1671.5 1588.92 1675.77 1569.39 1674.42 1550.15 1674.68 1550.04 1705.34 1549.91 1735.99 1549.97 1766.64 1539.58 1771.09 1527.36 1771.14 1517 1766.64 1517.21 1689.71 1516.95 1612.76 1517.13 1535.82 1516.51 1529.56 1520.02 1522.76 1526.64 1521.6M1550.12 1647.42C1568.93 1646.82 1588.8 1650.29 1606.65 1642.76 1638.97 1629.57 1644.31 1578.84 1617.39 1557.73 1597.76 1544 1572.52 1549.56 1550.15 1548.45 1550.09 1581.43 1550.12 1614.44 1550.12 1647.42Z" fill-rule="evenodd"/><path d="M2037.82 1546.7C2037.54 1540.35 2045.45 1540.4 2049.95 1540.01 2056.18 1540.27 2064.32 1538.77 2068.82 1544.07 2069.85 1558.3 2068.92 1572.62 2069.23 1586.88 2085.05 1587.45 2100.94 1586.1 2116.69 1587.71 2120.85 1594.89 2121.6 1605.97 2115.99 1612.51 2100.5 1614.29 2084.79 1612.84 2069.26 1613.39 2069.23 1645.4 2069.23 1677.41 2069.23 1709.42 2069.49 1719.6 2070.03 1730.94 2076.88 1739.16 2085.1 1747.32 2098.18 1745.77 2108.13 1741.97 2111.67 1741.38 2118.06 1737.01 2118.8 1743.14 2119.97 1750.4 2121.21 1759.44 2116.12 1765.51 2108.78 1770.47 2099.57 1771.14 2091.04 1771.92 2076.47 1772.54 2060.21 1769.77 2049.95 1758.46 2040.1 1747.19 2038.19 1731.56 2037.77 1717.2 2037.54 1682.58 2037.67 1647.96 2037.62 1613.34 2028.65 1612.59 2018.88 1614.89 2010.43 1611.89 2005.75 1605.17 2005.77 1593.96 2011.05 1587.58 2019.83 1586.34 2028.78 1587.09 2037.67 1586.88 2037.88 1573.5 2037.41 1560.09 2037.82 1546.7Z" fill-rule="evenodd"/><path d="M1716.38 1595.37C1740.41 1583.48 1768.6 1579.84 1794.79 1585.86 1807.86 1588.86 1820.47 1596.22 1827.25 1608.19 1836.89 1624.52 1835.91 1644.27 1835.93 1662.57 1835.62 1696.99 1836.5 1731.44 1835.52 1765.84 1829.02 1771.61 1817.73 1770.42 1810.18 1767.24 1807.3 1761.06 1809.15 1753.67 1808.74 1747.03 1795.7 1760.21 1778.79 1770.57 1759.94 1771.79 1741.77 1773 1721.74 1769.18 1708.57 1755.66 1695.14 1742.09 1692.26 1720.82 1697.38 1702.96 1701.74 1688.28 1713.93 1677.09 1727.85 1671.51 1752.06 1661.15 1778.89 1662.54 1804.61 1662.46 1804.51 1648.33 1806.14 1632.35 1797.09 1620.41 1787.71 1608.68 1771.08 1607.83 1757.31 1608.99 1740.41 1610.15 1725.74 1619.12 1710.87 1626.23 1702.72 1627.11 1703.29 1616.12 1703.47 1610.7 1703.06 1602.89 1710.35 1598.44 1716.38 1595.37M1752.57 1688.2C1742.18 1690.76 1731.82 1697.51 1728.63 1708.24 1725.61 1718.68 1727.21 1731.24 1735.3 1739.02 1744.19 1747.65 1757.88 1748.68 1769.46 1746.23 1783.89 1742.97 1794.85 1732.17 1804.72 1721.8 1804.54 1709.68 1804.59 1697.56 1804.56 1685.44 1787.24 1685.65 1769.51 1683.73 1752.57 1688.2Z" fill-rule="evenodd"/><path d="M1956.47 1584.94C1967.93 1581.57 1981 1582.56 1991.62 1588.17 1995.26 1594 1993.59 1601.66 1993.79 1608.24 1993.46 1611.78 1993.15 1619.55 1987.8 1617.45 1978.59 1615.1 1969.01 1610.77 1959.5 1614.14 1947.06 1618.62 1939.37 1630.24 1931.91 1640.52 1929.17 1644.87 1925.12 1649.11 1925.48 1654.65 1925.3 1690.97 1925.68 1727.35 1925.3 1763.67 1925.76 1767.78 1920.81 1769.13 1917.74 1769.44 1909.74 1770.48 1901.33 1770.35 1894 1766.67 1894.33 1708.63 1893.9 1650.59 1894.21 1592.57 1893.28 1586.26 1900.69 1585.82 1905.02 1585.69 1910.51 1585.82 1917.1 1584.7 1921.66 1588.64 1923.27 1597.6 1922.35 1606.79 1922.66 1615.85 1931.84 1603.65 1941.6 1590.27 1956.47 1584.94Z" fill-rule="evenodd"/><path d="M2512.95 1584.31C2536.42 1581.1 2562.19 1583.22 2582.2 1597.05 2600.4 1609.67 2610.27 1631.23 2613.32 1652.68 2617.15 1680 2615 1709.5 2600.89 1733.82 2588.9 1754.71 2566.23 1768.28 2542.52 1770.99 2519.67 1773.73 2494.78 1771.36 2475.47 1757.84 2457.81 1745.71 2448.2 1724.9 2445.02 1704.22 2441.06 1678.71 2442.46 1651.54 2453.34 1627.84 2463.89 1604.11 2487.46 1587.77 2512.95 1584.31M2509.95 1612.43C2489.04 1619.33 2478.57 1641.72 2476.61 1662.27 2474.64 1683.6 2475.42 1706.96 2487.2 1725.6 2506.41 1754.17 2556.95 1751.99 2572.97 1721.18 2581.84 1705 2583.03 1685.85 2582.02 1667.78 2580.78 1650.92 2576.64 1632.65 2563.64 1620.86 2549.24 1608.06 2527.61 1606.95 2509.95 1612.43Z" fill-rule="evenodd"/><path d="M2162.04 1588.91C2169.7 1584.78 2179.1 1585.86 2187.39 1587.21 2191.65 1587.59 2192.08 1592.24 2191.95 1595.72 2191.95 1652.66 2191.82 1709.6 2192 1766.53 2183.36 1770.84 2173 1770.84 2163.95 1768.13 2159.9 1766.82 2161.53 1761.55 2161.06 1758.4 2161.18 1707.61 2161.16 1656.82 2161.08 1606.02 2161.21 1600.32 2160.43 1594.43 2162.04 1588.91Z" fill-rule="evenodd"/><path d="M1157.27 1643.04C1176.36 1638.37 1198.52 1641.41 1213.11 1655.42 1223.65 1665.19 1228.39 1679.81 1227.98 1694 1227.95 1870.19 1228.03 2046.4 1227.92 2222.62 1227.64 2245.01 1224.86 2270.43 1207.36 2286.42 1184.45 2305.07 1145.95 2300.74 1128.35 2276.7 1120.44 2266.51 1117.74 2253.34 1118.02 2240.7 1118.12 2057.55 1117.92 1874.37 1118.12 1691.21 1117.56 1668.34 1135.34 1647.94 1157.27 1643.04Z" fill="#202124" fill-rule="evenodd"/><path d="M1354.63 1654.31C1369.79 1642.1 1391.16 1639.11 1409.57 1644.73 1422.29 1648.68 1432.49 1658.6 1438.46 1670.34 1447.11 1687.1 1449.35 1706.2 1450.74 1724.76 1454.63 1788.45 1446.75 1852.06 1447.03 1915.75 1478.47 1884.85 1519.67 1862.8 1564.08 1859.76 1598.97 1857.38 1637.46 1861.1 1665.47 1884.2 1691.53 1905.91 1699.97 1941.02 1703.99 1973.24 1708.19 2019.48 1707 2066.08 1712.44 2112.21 1716.43 2154.78 1721.01 2197.45 1731 2239.12 1734.99 2254.32 1733.34 2271.83 1723.02 2284.25 1703.99 2308.31 1664.31 2313.86 1640.73 2293.56 1625.2 2279.52 1622.29 2257.6 1617.63 2238.32 1607.67 2189.06 1601.36 2138.98 1599.84 2088.74 1599.69 2055.13 1603.68 2021.49 1600.87 1987.93 1599.92 1977.86 1593.56 1966.35 1582.23 1966.12 1559.73 1965.14 1537.61 1973.89 1520.13 1987.78 1492.66 2009.31 1475.64 2040.62 1458.08 2070.13 1454.96 2076.09 1450.02 2081.72 1450.2 2088.82 1449.99 2127.75 1449.53 2166.71 1446.26 2205.51 1444.79 2220.61 1443.14 2235.81 1439.03 2250.48 1433.31 2269.81 1417.45 2287.24 1396.8 2289.92 1368.94 2295.06 1336.94 2277.15 1330.96 2248.49 1327.67 2235.66 1333.74 2223.42 1335.44 2210.93 1341.29 2135.91 1337.63 2060.68 1338.43 1985.53 1338.66 1939.91 1339.25 1894.32 1339.87 1848.71 1340.93 1822.01 1342.88 1795.32 1343.14 1768.6 1343.32 1742.53 1335.16 1717.15 1335.75 1691.07 1336.06 1676.75 1343.25 1662.93 1354.63 1654.31Z" fill="#202124" fill-rule="evenodd"/><path d="M2099.76 1891.73C2161.08 1845.22 2254.8 1846.59 2313.37 1897.18 2344.91 1923.23 2365.35 1960.97 2373.35 2000.79 2380.97 2039.2 2380.89 2079.24 2373.07 2117.59 2364.94 2156.7 2344.75 2193.69 2313.91 2219.41 2255.68 2270.1 2162.27 2271.95 2100.81 2225.91 2065.79 2200.27 2040 2164.49 2016.93 2128.27 1992.98 2161.11 1962.6 2190.08 1925.66 2207.75 1894.84 2223.38 1859.04 2231.22 1824.82 2223.97 1783.91 2215.9 1749.68 2185.72 1731.48 2148.91 1712.72 2109.75 1710.06 2064.69 1715.48 2022.18 1720.44 1983.2 1738.56 1945.13 1769.58 1920.26 1800.4 1893.93 1844.02 1885.13 1883.18 1894.39 1937.95 1907.13 1984.28 1943.94 2017.01 1988.75 2039.72 1952.76 2065.25 1917.37 2099.76 1891.73M2128.59 1979.54C2106.29 2003.14 2087.83 2030.12 2070.49 2057.49 2088.06 2084.24 2105.67 2111.09 2126.19 2135.7 2146.4 2159.82 2177.58 2175.81 2209.48 2173.75 2230.08 2173.08 2250.65 2164.52 2264.35 2148.91 2285.11 2125.49 2293.96 2093.73 2294.86 2062.99 2295.66 2035.41 2292.05 2006.37 2276.85 1982.71 2263.22 1961.33 2240.32 1945.05 2214.64 1942.96 2182.02 1939.69 2150.45 1956.32 2128.59 1979.54M1823.32 1986.74C1803.94 2000.51 1794.52 2024.53 1793.64 2047.69 1792.22 2073.43 1796.89 2101.99 1816.3 2120.61 1830.21 2135.39 1851.92 2141.17 1871.64 2137.17 1888.18 2134.67 1902.12 2124.56 1914.59 2114.01 1934.57 2097.04 1951.42 2076.79 1967.45 2056.13 1945.15 2025.82 1919.91 1994.45 1883.92 1980.11 1864.26 1972.32 1840.43 1973.63 1823.32 1986.74Z" fill="#202124" fill-rule="evenodd"/><path d="M749.676 1883.22C793.297 1861.86 843.706 1861.03 890.915 1867.66 924.573 1872.98 959.083 1883.5 984.842 1906.75 1017.16 1935.75 1025.6 1990.39 998.239 2025.4 980.171 2049.6 953.12 2064.59 926.56 2077.67 865.543 2106.93 803.079 2132.98 741.468 2160.87 768.053 2189.9 808.267 2202.13 846.752 2202.05 878.577 2202.51 911.306 2196.94 939.131 2180.87 958.257 2170.19 979.112 2158.32 1001.85 2161.11 1013.96 2162.16 1026.37 2168.56 1031.2 2180.25 1038.04 2197.4 1035.41 2217.84 1025.24 2233.16 1014.19 2249.91 996.87 2261.21 979.216 2270.03 924.857 2296.55 862.445 2303.96 802.821 2295.93 756.929 2289.84 711.397 2272.02 677.636 2239.64 646.534 2210.92 629.679 2169.18 627.434 2127.31 625.317 2084.61 630.84 2041.09 646.482 2001.12 665.944 1951.74 701.125 1906.62 749.676 1883.22M786.508 1976.54C759.071 1996.02 743.739 2027.8 733.724 2059.02 792.884 2032.99 854.263 2010.72 908.828 1975.5 890.58 1965.7 869.853 1961.6 849.307 1960.75 827.419 1959.2 804.525 1963.48 786.508 1976.54Z" fill="#202124" fill-rule="evenodd"/></g></svg>